<svg version="1.1" id="Layer_1" xmlns="http://www.w3.org/2000/svg" xmlns:xlink="http://www.w3.org/1999/xlink" x="0px" y="0px" viewBox="0 0 1920 1539.9" enable-background="new 0 0 1920 1539.9" xml:space="preserve"><g id="iMac_x5F_FRONT_x5F_RENDER"><g><linearGradient id="SVGID_1_" gradientUnits="userSpaceOnUse" x1="0" y1="1233.1886" x2="1919.9734" y2="1233.1886"><stop  offset="0" style="stop-color:#AFAFB3"/><stop  offset="1" style="stop-color:#DCDDE1"/></linearGradient><path fill-rule="evenodd" clip-rule="evenodd" fill="url(#SVGID_1_)" d="M1920,1144.6v129.6c0,26.2-21.3,47.5-47.5,47.5H47.5c-26.2,0-47.5-21.3-47.5-47.5v-129.6H1920z"/><g><path opacity="0.5" fill="#F2F2F2" d="M977.1,1207.5c-3.2,0-6.1,0.5-8.7,1.4l-1.6,0.6l-2.2,0.9c-1.4,0.5-2.7,0.8-3.9,0.8c-0.9,0-2.1-0.3-3.6-0.9l-1.7-0.7l-1.6-0.6c-2.3-1-4.8-1.5-7.5-1.5c-7.2,0-12.9,2.4-17.2,7.2c-4.3,4.8-6.5,11.2-6.5,19.1c0,11.1,3.5,21.4,10.4,30.8c4.8,6.6,9.2,9.9,13.2,9.9c1.7,0,3.4-0.3,5-1l2.1-0.9l1.7-0.6c2.4-0.8,4.5-1.3,6.5-1.3c2.1,0,4.5,0.5,7.2,1.6l1.3,0.5c2.8,1.1,5,1.6,6.6,1.6c3.4,0,7.2-2.3,11.3-7c4.1-4.7,7.3-10.2,9.5-16.5c-8.1-4.2-12.2-10.2-12.2-18.1c0-6.6,3.3-12.2,9.9-16.8C990.6,1210.4,984.6,1207.5,977.1,1207.5L977.1,1207.5z M976,1186.8c-4.4,0.6-8.3,2.8-11.7,6.5c-3.4,3.7-5,7.7-5,11.9c0,0.5,0.1,1.3,0.2,2.4c4.8,0,9-1.9,12.6-5.6c3.6-3.8,5.4-8.1,5.4-13.1c0-0.5,0-1.3-0.1-2.3C976.8,1186.6,976.3,1186.7,976,1186.8L976,1186.8z"/><path fill="#010101" d="M977.1,1205.9c-3.2,0-6.1,0.5-8.7,1.4l-1.6,0.6l-2.2,0.9c-1.4,0.5-2.7,0.8-3.9,0.8c-0.9,0-2.1-0.3-3.6-0.9l-1.7-0.7l-1.6-0.6c-2.3-1-4.8-1.5-7.5-1.5c-7.2,0-12.9,2.4-17.2,7.2c-4.3,4.8-6.5,11.2-6.5,19.1c0,11.1,3.5,21.4,10.4,30.8c4.8,6.6,9.2,9.9,13.2,9.9c1.7,0,3.4-0.3,5-1l2.1-0.9l1.7-0.6c2.4-0.8,4.5-1.3,6.5-1.3c2.1,0,4.5,0.5,7.2,1.6l1.3,0.5c2.8,1.1,5,1.6,6.6,1.6c3.4,0,7.2-2.3,11.3-7c4.1-4.7,7.3-10.2,9.5-16.5c-8.1-4.2-12.2-10.2-12.2-18.1c0-6.6,3.3-12.2,9.9-16.8C990.6,1208.8,984.6,1205.9,977.1,1205.9L977.1,1205.9z M976,1185.2c-4.4,0.6-8.3,2.8-11.7,6.5c-3.4,3.7-5,7.7-5,11.9c0,0.5,0.1,1.3,0.2,2.4c4.8,0,9-1.9,12.6-5.6c3.6-3.8,5.4-8.1,5.4-13.1c0-0.5,0-1.3-0.1-2.3C976.8,1185,976.3,1185.1,976,1185.2L976,1185.2z"/><g opacity="0.2"><linearGradient id="SVGID_2_" gradientUnits="userSpaceOnUse" x1="965.4428" y1="1185.6967" x2="998.0705" y2="1292.3055"><stop  offset="0" style="stop-color:#FFFFFF"/><stop  offset="1" style="stop-color:#DCDDE1;stop-opacity:0"/></linearGradient><path fill="url(#SVGID_2_)" d="M972.1,1200.4c3.6-3.8,5.4-8.1,5.4-13.1c0-0.5,0-1.3-0.1-2.3c-0.6,0.1-1.1,0.2-1.4,0.2c-4.4,0.6-8.3,2.8-11.7,6.5c-3.4,3.7-5,7.7-5,11.9c0,0.5,0.1,1.3,0.2,2.4C964.3,1206,968.5,1204.1,972.1,1200.4z"/><linearGradient id="SVGID_3_" gradientUnits="userSpaceOnUse" x1="964.2636" y1="1186.0575" x2="996.8912" y2="1292.6665"><stop  offset="0" style="stop-color:#FFFFFF"/><stop  offset="1" style="stop-color:#DCDDE1;stop-opacity:0"/></linearGradient><path fill="url(#SVGID_3_)" d="M985.3,1231.3c0-6.6,3.3-12.2,9.9-16.8c-4.6-5.7-10.6-8.6-18.1-8.6c-3.2,0-6.1,0.5-8.7,1.4l-1.6,0.6l-2.2,0.9c-1.4,0.5-2.7,0.8-3.9,0.8c-0.9,0-2.1-0.3-3.6-0.9l-1.7-0.7l-1.6-0.6c-1.8-0.7-3.6-1.2-5.6-1.4c6.4,12.7,13,25.2,19.8,37.6c4.9,9.1,9.8,18.1,14.7,27.2c1.7-1.2,3.5-2.8,5.3-4.9c4.1-4.7,7.3-10.2,9.5-16.5C989.4,1245.2,985.3,1239.2,985.3,1231.3z"/></g></g><g><path fill="#010101" d="M1920,47.5c0-26.2-21.3-47.5-47.5-47.5H47.5C21.3,0,0,21.3,0,47.5v1097.1h1920V47.5z"/></g><linearGradient id="SVGID_4_" gradientUnits="userSpaceOnUse" x1="959.9867" y1="80.578" x2="959.9867" y2="1063.4137"><stop  offset="0" style="stop-color:#D91F5D"/><stop  offset="1" style="stop-color:#673090"/></linearGradient><path fill="#0F0F0F" d="M1844.9,1070.5H75v-998h1769.9V1070.5z M80,1065.5h1759.9v-988H80V1065.5z"/><g><path opacity="0.5" fill-rule="evenodd" clip-rule="evenodd" fill="#FFFFFF" d="M930,39.1c0.8,0,1.5,0.7,1.5,1.5c0,0.8-0.7,1.5-1.5,1.5c-0.8,0-1.5-0.7-1.5-1.5C928.5,39.8,929.2,39.1,930,39.1z"/><linearGradient id="SVGID_5_" gradientUnits="userSpaceOnUse" x1="929.9846" y1="38.8469" x2="929.9846" y2="41.6125"><stop  offset="0" style="stop-color:#151517"/><stop  offset="1" style="stop-color:#46464B"/></linearGradient><path fill-rule="evenodd" clip-rule="evenodd" fill="url(#SVGID_5_)" d="M930,38.8c0.8,0,1.5,0.7,1.5,1.5c0,0.8-0.7,1.5-1.5,1.5c-0.8,0-1.5-0.7-1.5-1.5C928.5,39.5,929.2,38.8,930,38.8z"/><g><path opacity="0.5" fill-rule="evenodd" clip-rule="evenodd" fill="#FFFFFF" d="M960,33.7c4.1,0,7.5,3.4,7.5,7.5s-3.4,7.5-7.5,7.5c-4.1,0-7.5-3.4-7.5-7.5S955.8,33.7,960,33.7z"/><linearGradient id="SVGID_6_" gradientUnits="userSpaceOnUse" x1="959.9867" y1="33.4424" x2="959.9867" y2="47.823"><stop  offset="0" style="stop-color:#151517"/><stop  offset="1" style="stop-color:#46464B"/></linearGradient><path fill-rule="evenodd" clip-rule="evenodd" fill="url(#SVGID_6_)" d="M960,32.8c4.1,0,7.5,3.4,7.5,7.5s-3.4,7.5-7.5,7.5c-4.1,0-7.5-3.4-7.5-7.5S955.8,32.8,960,32.8z"/><path opacity="0.1" fill-rule="evenodd" clip-rule="evenodd" fill="#FFFFFF" d="M961.9,42.8c-2.9-1.2-0.5,4.4-0.3,4.8c1.3-0.3,2.5-0.9,3.5-1.8C964.1,44.8,963.1,43.3,961.9,42.8z"/><linearGradient id="SVGID_7_" gradientUnits="userSpaceOnUse" x1="959.9867" y1="43.9563" x2="959.9867" y2="35.9407"><stop  offset="0" style="stop-color:#151517"/><stop  offset="1" style="stop-color:#46464B"/></linearGradient><path fill-rule="evenodd" clip-rule="evenodd" fill="url(#SVGID_7_)" d="M960,35.8c2.5,0,4.5,2,4.5,4.5s-2,4.5-4.5,4.5c-2.5,0-4.5-2-4.5-4.5S957.5,35.8,960,35.8z"/><radialGradient id="SVGID_8_" cx="960.1484" cy="41.2271" r="6.2189" gradientUnits="userSpaceOnUse"><stop  offset="0.2258" style="stop-color:#673090"/><stop  offset="0.8587" style="stop-color:#29AAE1"/></radialGradient><path fill-rule="evenodd" clip-rule="evenodd" fill="url(#SVGID_8_)" d="M960,37.2c1.7,0,3.1,1.4,3.1,3.1s-1.4,3.1-3.1,3.1c-1.7,0-3.1-1.4-3.1-3.1S958.3,37.2,960,37.2z"/><path opacity="0.5" fill-rule="evenodd" clip-rule="evenodd" fill="#FFFFFF" d="M960,37.1c0.9,0,1.6,0.4,1.6,0.8s-0.7,0.8-1.6,0.8s-1.6-0.4-1.6-0.8S959.1,37.1,960,37.1z"/><path opacity="0.1" fill-rule="evenodd" clip-rule="evenodd" fill="#FFFFFF" d="M960,42.3c0.4,0,0.7,0.2,0.7,0.3S960.4,43,960,43s-0.7-0.2-0.7-0.3S959.6,42.3,960,42.3z"/></g></g><polygon fill-rule="evenodd" clip-rule="evenodd" fill="#F2F2F2" points="0,1144.6 0,1145 0,1145.3 1920,1145.3 1920,1145 1920,1144.6 "/><linearGradient id="SVGID_9_" gradientUnits="userSpaceOnUse" x1="959.9867" y1="1321.7363" x2="959.9867" y2="1533.085"><stop  offset="0" style="stop-color:#B8B8BC"/><stop  offset="0.1432" style="stop-color:#C7C7C9"/><stop  offset="0.4273" style="stop-color:#F1F1F1"/><stop  offset="0.4864" style="stop-color:#FFFFFF"/><stop  offset="0.541" style="stop-color:#F7F6F6"/><stop  offset="0.6061" style="stop-color:#E7E6E6"/><stop  offset="0.6767" style="stop-color:#D0CFD0"/><stop  offset="0.7505" style="stop-color:#B2B2B4"/><stop  offset="0.8187" style="stop-color:#939598"/><stop  offset="0.9417" style="stop-color:#F2F2F2"/><stop  offset="1" style="stop-color:#BDBEC0"/></linearGradient><path fill-rule="evenodd" clip-rule="evenodd" fill="url(#SVGID_9_)" d="M1207.5,1534.3c-135.3,0-385.9,0-495.1,0c-43.6,0-44-3.5-44-3.5l58.9-15.7c0,0,14.6-4.5,20.7-15.9c9.4-17.6,11.9-44.8,11.9-44.8l9.5-132.7h381.1l9.5,132.7c0,0,2.5,27.2,11.9,44.8c6.2,11.5,20.7,15.9,20.7,15.9l58.9,15.7C1251.5,1530.8,1251.3,1534.3,1207.5,1534.3z"/><linearGradient id="SVGID_10_" gradientUnits="userSpaceOnUse" x1="668.438" y1="1535.3549" x2="1251.5354" y2="1535.3549"><stop  offset="0" style="stop-color:#A8AAAD"/><stop  offset="1.334430e-02" style="stop-color:#B6B7BA"/><stop  offset="3.980583e-02" style="stop-color:#DFDFE0"/><stop  offset="5.000000e-02" style="stop-color:#F2F2F2"/><stop  offset="0.95" style="stop-color:#F2F2F2"/><stop  offset="1" style="stop-color:#A8AAAD"/></linearGradient><path fill-rule="evenodd" clip-rule="evenodd" fill="url(#SVGID_10_)" d="M668.4,1534.9c0,0,7.3,5,44,5c109.1,0,359.7,0,495.1,0c32.6,0,44-5.1,44-5.1v-4c0,0-0.1,3.5-44,3.5c-135.3,0-385.9,0-495.1,0c-44.1,0-44-3.5-44-3.5V1534.9z"/><g opacity="0.1"><linearGradient id="SVGID_11_" gradientUnits="userSpaceOnUse" x1="1452.5938" y1="-38.7014" x2="1668.7723" y2="547.0727"><stop  offset="0" style="stop-color:#FFFFFF"/><stop  offset="1" style="stop-color:#DCDDE1;stop-opacity:0"/></linearGradient><path fill="url(#SVGID_11_)" d="M1920,47.5c0-26.2-21.3-47.5-47.5-47.5h-787.4l365.5,1144.6H1920V47.5z"/></g></g></g></svg>